<?xml version="1.0" encoding="UTF-8" standalone="no"?>
<svg
   width="263"
   height="500"
   version="1.1"
   id="svg645"
   sodipodi:docname="illustration-phone-mockup.svg"
   inkscape:version="1.1.2 (0a00cf5339, 2022-02-04)"
   xmlns:inkscape="http://www.inkscape.org/namespaces/inkscape"
   xmlns:sodipodi="http://sodipodi.sourceforge.net/DTD/sodipodi-0.dtd"
   xmlns:xlink="http://www.w3.org/1999/xlink"
   xmlns="http://www.w3.org/2000/svg"
   xmlns:svg="http://www.w3.org/2000/svg">
  <sodipodi:namedview
     id="namedview647"
     pagecolor="#ffffff"
     bordercolor="#666666"
     borderopacity="1.0"
     inkscape:pageshadow="2"
     inkscape:pageopacity="0.0"
     inkscape:pagecheckerboard="0"
     showgrid="false"
     width="263px"
     inkscape:zoom="1.2403374"
     inkscape:cx="265.2504"
     inkscape:cy="414.40336"
     inkscape:window-width="1440"
     inkscape:window-height="742"
     inkscape:window-x="0"
     inkscape:window-y="0"
     inkscape:window-maximized="1"
     inkscape:current-layer="svg645" />
  <defs
     id="defs588">
    <linearGradient
       id="c"
       x1="29.020227"
       x2="29.020227"
       y1="0"
       y2="54.683819"
       gradientTransform="scale(4.437181,0.22536831)"
       gradientUnits="userSpaceOnUse">
      <stop
         offset="0%"
         stop-color="#454545"
         id="stop535" />
      <stop
         offset="22.628%"
         stop-color="#999"
         id="stop537" />
      <stop
         offset="100%"
         stop-color="#FFF"
         id="stop539" />
    </linearGradient>
    <linearGradient
       id="d"
       x1="1512.1223"
       x2="1456.5737"
       y1="42.378498"
       y2="42.378498"
       gradientTransform="scale(0.17031361,5.8715215)"
       gradientUnits="userSpaceOnUse">
      <stop
         offset="0%"
         stop-color="#FFF"
         stop-opacity="0"
         id="stop542" />
      <stop
         offset="22.218%"
         stop-color="#BABABA"
         id="stop544" />
      <stop
         offset="54.678%"
         stop-color="#FFF"
         stop-opacity="0"
         id="stop546" />
      <stop
         offset="100%"
         stop-color="#FFF"
         stop-opacity="0"
         id="stop548" />
    </linearGradient>
    <linearGradient
       id="e"
       x1="80.158011"
       x2="24.520469"
       y1="42.378498"
       y2="42.378498"
       gradientTransform="scale(0.17031361,5.8715215)"
       gradientUnits="userSpaceOnUse">
      <stop
         offset="0%"
         stop-color="#FFF"
         stop-opacity="0"
         id="stop551" />
      <stop
         offset="22.218%"
         stop-color="#BABABA"
         id="stop553" />
      <stop
         offset="54.678%"
         stop-color="#FFF"
         stop-opacity="0"
         id="stop555" />
      <stop
         offset="100%"
         stop-color="#FFF"
         stop-opacity="0"
         id="stop557" />
    </linearGradient>
    <linearGradient
       id="g"
       x1="164.28678"
       x2="164.28678"
       y1="0"
       y2="326.01397"
       gradientTransform="scale(0.70794499,1.4125391)"
       gradientUnits="userSpaceOnUse">
      <stop
         offset="0%"
         stop-color="#9CB6CD"
         id="stop560" />
      <stop
         offset="42.056%"
         stop-color="#9AB3CA"
         id="stop562" />
      <stop
         offset="71.659%"
         stop-color="#557496"
         id="stop564" />
      <stop
         offset="100%"
         stop-color="#475178"
         id="stop566" />
    </linearGradient>
    <filter
       id="a"
       width="1.8422278"
       height="1.43499"
       x="-0.37259849"
       y="-0.19243799"
       filterUnits="objectBoundingBox">
      <feOffset
         dx="25"
         dy="25"
         in="SourceAlpha"
         result="shadowOffsetOuter1"
         id="feOffset569" />
      <feGaussianBlur
         in="shadowOffsetOuter1"
         result="shadowBlurOuter1"
         stdDeviation="40"
         id="feGaussianBlur571" />
      <feColorMatrix
         in="shadowBlurOuter1"
         values="0 0 0 0 0.212302148 0 0 0 0 0.325209598 0 0 0 0 0.419299139 0 0 0 0.300726617 0"
         id="feColorMatrix573" />
    </filter>
    <filter
       id="i"
       width="1.3211009"
       height="1.8045977"
       x="-0.13761468"
       y="-0.34482759"
       filterUnits="objectBoundingBox">
      <feMorphology
         in="SourceAlpha"
         radius="5"
         result="shadowSpreadOuter1"
         id="feMorphology576" />
      <feOffset
         dx="10"
         dy="10"
         in="shadowSpreadOuter1"
         result="shadowOffsetOuter1"
         id="feOffset578" />
      <feGaussianBlur
         in="shadowOffsetOuter1"
         result="shadowBlurOuter1"
         stdDeviation="12.5"
         id="feGaussianBlur580" />
      <feColorMatrix
         in="shadowBlurOuter1"
         values="0 0 0 0 0.212302148 0 0 0 0 0.325209598 0 0 0 0 0.419299139 0 0 0 0.25 0"
         id="feColorMatrix582" />
    </filter>
    <path
       id="b"
       d="M 35.776,0.57 H 227.01 c 18.34,0 33.208,14.235 33.208,31.795 v 435.27 c 0,17.56 -14.867,31.796 -33.208,31.796 H 35.776 c -18.34,0 -33.208,-14.236 -33.208,-31.796 V 32.365 c 0,-17.56 14.868,-31.796 33.208,-31.796 z" />
    <path
       id="f"
       d="M 93.602,0 H 19.196 C 8.09,0 0,7.563 0,17.441 v 422.39 c 0,12.88 12.502,24.292 26.64,24.292 h 179.332 c 13.618,0 26.64,-11.5 26.64,-24.292 V 18.583 C 232.612,6.743 223.822,0.07 213.416,0 H 137.83 c -0.287,0.047 -5.479,2.182 -7.673,7.563 -2.195,5.382 -6.61,9.672 -11.445,9.672 h -5.615 c -2.298,0 -8.348,-2.23 -11.411,-9.672 C 98.623,0.121 93.888,0.047 93.602,0 Z" />
    <rect
       id="j"
       width="218"
       height="87"
       x="0"
       y="0"
       rx="5" />
  </defs>
  <g
     fill="none"
     fill-rule="evenodd"
     transform="translate(0.2293851,1.084629)"
     id="g643">
    <use
       fill="#000000"
       filter="url(#a)"
       xlink:href="#b"
       id="use590"
       x="0"
       y="0"
       width="100%"
       height="100%" />
    <use
       fill="#213648"
       xlink:href="#b"
       id="use592"
       x="0"
       y="0"
       width="100%"
       height="100%" />
    <path
       fill="url(#c)"
       fill-opacity="0.65"
       d="M 225.18,0 H 32.356 C 23.352,0.549 15.05,4.657 7.447,12.324 c 4.89,-4.268 13.61,-9.98 25.14,-9.98 h 192.362 c 11.53,0 20.25,5.712 25.14,9.98 C 242.486,4.657 234.183,0.549 225.18,0 Z"
       opacity="0.596"
       transform="translate(2.568)"
       id="path594"
       style="fill:url(#c)" />
    <path
       fill="url(#d)"
       d="M 252.431,462.67 V 34.983 c 0,-11.476 -4.217,-15.718 -6.733,-18.442 -2.516,-2.723 -2.623,-4.113 0.992,-2.056 3.615,2.056 10.845,8.047 10.845,20.498 V 462.67 c 0,12.451 -7.23,18.441 -10.845,20.498 -3.615,2.056 -3.508,0.667 -0.992,-2.057 2.516,-2.724 6.733,-6.966 6.733,-18.441 z"
       opacity="0.75"
       transform="translate(2.568)"
       id="path596"
       style="fill:url(#d)" />
    <path
       fill="url(#e)"
       d="M 8.548,462.67 V 34.983 c 0,-11.476 -4.217,-15.718 -6.733,-18.442 -2.516,-2.723 -2.623,-4.113 0.992,-2.056 3.615,2.056 10.845,8.047 10.845,20.498 V 462.67 c 0,12.451 -7.23,18.441 -10.845,20.498 -3.615,2.056 -3.508,0.667 -0.992,-2.057 2.516,-2.724 6.733,-6.966 6.733,-18.441 z"
       opacity="0.75"
       transform="matrix(-1,0,0,1,16.22,0)"
       id="path598"
       style="fill:url(#e)" />
    <path
       fill="#2e423c"
       d="m 2,101.557 h 0.965 a 2,2 0 0 1 2,2 v 60.35 a 2,2 0 0 1 -2,2 H 2 a 2,2 0 0 1 -2,-2 v -60.35 a 2,2 0 0 1 2,-2 z m 257.535,52.487 h 0.965 a 2,2 0 0 1 2,2 v 42.95 a 2,2 0 0 1 -2,2 h -0.965 a 2,2 0 0 1 -2,-2 v -42.95 a 2,2 0 0 1 2,-2 z"
       id="path600" />
    <g
       transform="translate(15.074,12.444)"
       id="g613">
      <mask
         id="h"
         fill="#ffffff">
        <use
           xlink:href="#f"
           id="use602"
           x="0"
           y="0"
           width="100%"
           height="100%" />
      </mask>
      <use
         fill="#ffffff"
         xlink:href="#f"
         id="use605"
         x="0"
         y="0"
         width="100%"
         height="100%" />
      <path
         fill="url(#g)"
         mask="url(#h)"
         d="m -0.074,0 h 233 v 465 h -233 z"
         id="path607"
         style="fill:url(#g)" />
      <text
         fill="#ffffff"
         font-family="PublicSans-Bold, 'Public Sans'"
         font-size="32px"
         font-weight="bold"
         mask="url(#h)"
         id="text611"><tspan
           x="73.926003"
           y="127.556"
           id="tspan609">12:49</tspan></text>
    </g>
    <g
       transform="translate(22,167)"
       id="g641">
      <use
         fill="#000000"
         filter="url(#i)"
         xlink:href="#j"
         id="use615"
         x="0"
         y="0"
         width="100%"
         height="100%" />
      <use
         fill="#fbfcfe"
         xlink:href="#j"
         id="use617"
         x="0"
         y="0"
         width="100%"
         height="100%" />
      <g
         font-size="10px"
         id="g627">
        <text
           fill="#ba4270"
           font-family="PublicSans-Bold, 'Public Sans'"
           font-weight="bold"
           transform="translate(16,16)"
           id="text621"><tspan
             x="0"
             y="9"
             id="tspan619">PayAPI</tspan></text>
        <text
           fill="#36536b"
           font-family="PublicSans-Regular, 'Public Sans'"
           opacity="0.5"
           transform="translate(16,16)"
           id="text625"><tspan
             x="144.05"
             y="9"
             id="tspan623">Just Now</tspan></text>
      </g>
      <text
         fill="#36536b"
         font-family="PublicSans-Regular, 'Public Sans'"
         font-size="10px"
         id="text639"><tspan
           x="16"
           y="40"
           id="tspan629">The payment has been processed. The</tspan><tspan
           x="16"
           y="54"
           id="tspan631">total amount deducted from your</tspan><tspan
           x="16"
           y="68"
           id="tspan633">account is</tspan><tspan
           x="63.619999"
           y="68"
           font-family="PublicSans-Bold, 'Public Sans'"
           font-weight="bold"
           id="tspan635">US $104.90</tspan><tspan
           x="121.855"
           y="68"
           id="tspan637">.</tspan></text>
    </g>
  </g>
</svg>
